<svg width="740" height="530" viewBox="0 0 740 530" fill="none" xmlns="http://www.w3.org/2000/svg">
<g clip-path="url(#clip0_18_6)">
<path d="M598.872 337.237C599.534 337.298 600.198 337.154 600.775 336.826C601.352 336.497 601.815 335.999 602.099 335.399C602.384 334.799 602.477 334.126 602.366 333.472C602.255 332.817 601.945 332.212 601.479 331.739C601.412 331.411 601.365 331.176 601.298 330.848C601.331 330.779 601.363 330.71 601.396 330.641C602.138 329.095 603.319 327.803 604.793 326.927C606.267 326.051 607.967 325.629 609.679 325.715C611.392 325.801 613.041 326.391 614.42 327.411C615.798 328.43 616.844 329.834 617.426 331.446C619.755 337.88 622.799 344.357 623.31 351.069C623.535 354.035 623.243 357.018 622.447 359.885C629.231 346.746 633.11 332.302 633.818 317.533C633.992 313.827 633.959 310.114 633.718 306.411C633.518 303.376 633.184 300.356 632.718 297.351C630.169 281.047 623.787 265.58 614.095 252.219C609.24 249.271 605.406 244.907 603.11 239.715C602.277 237.848 601.719 235.87 601.454 233.844C602.012 233.944 602.581 234.016 603.141 234.079C603.316 234.096 603.5 234.114 603.674 234.132L603.74 234.138C604.357 234.194 604.976 234.071 605.524 233.784C606.072 233.497 606.525 233.057 606.829 232.519C607.133 231.98 607.275 231.365 607.237 230.748C607.2 230.13 606.984 229.537 606.617 229.039C606.388 228.73 606.16 228.42 605.93 228.111C605.583 227.633 605.227 227.165 604.88 226.687C604.839 226.641 604.801 226.593 604.766 226.543C604.367 225.999 603.967 225.464 603.568 224.919C604.397 223.756 605.485 222.799 606.745 222.124C611.107 219.836 616.886 221.83 619.775 225.812C622.673 229.794 623.002 235.206 621.71 239.953C620.469 243.985 618.551 247.777 616.036 251.166C616.253 251.471 616.479 251.767 616.696 252.073C620.654 257.678 624.052 263.658 626.843 269.926C626.415 263.03 627.631 256.13 630.391 249.795C633.165 243.9 638.074 239.055 642.432 234.05C647.666 228.038 657.676 231.233 658.178 239.186C658.183 239.263 658.188 239.34 658.192 239.417C657.565 239.733 656.949 240.071 656.346 240.431C655.588 240.888 654.985 241.563 654.617 242.368C654.249 243.173 654.133 244.07 654.284 244.942C654.436 245.814 654.847 246.62 655.464 247.255C656.081 247.889 656.876 248.322 657.744 248.498L657.833 248.516C657.513 250.707 657.026 252.871 656.377 254.989C654.508 260.899 651.438 266.359 647.359 271.027C643.279 275.695 638.279 279.471 632.671 282.117C632.303 282.284 631.944 282.452 631.577 282.61C634.26 291.506 635.773 300.713 636.08 309.999C636.244 315.477 635.963 320.959 635.243 326.391L635.279 326.199C636.741 320.189 640.234 314.867 645.167 311.132C652.49 305.67 662.555 304.001 670.382 299.701C671.215 299.22 672.168 298.986 673.129 299.029C674.09 299.071 675.019 299.387 675.807 299.94C676.594 300.493 677.207 301.259 677.573 302.148C677.938 303.037 678.042 304.013 677.871 304.959C677.858 305.026 677.845 305.093 677.831 305.161C676.675 305.569 675.546 306.05 674.45 306.599C673.822 306.916 673.207 307.253 672.603 307.613C671.845 308.07 671.242 308.745 670.875 309.55C670.507 310.355 670.391 311.252 670.542 312.124C670.693 312.996 671.104 313.802 671.721 314.437C672.339 315.071 673.134 315.504 674.001 315.68L674.09 315.698C674.155 315.71 674.209 315.722 674.273 315.734C672.12 320.269 669.201 324.399 665.645 327.944C661.257 332.231 656.038 335.578 650.31 337.778C644.581 339.979 638.463 340.987 632.331 340.74L632.322 340.74C630.321 347.889 627.582 354.811 624.149 361.395L598.448 360.199C598.369 359.909 598.3 359.611 598.23 359.321C600.602 359.582 602.997 359.55 605.362 359.229C603.564 356.802 601.766 354.356 599.968 351.929C599.928 351.884 599.89 351.836 599.855 351.786C598.944 350.544 598.023 349.311 597.111 348.069L597.111 348.068C597.23 344.397 597.822 340.757 598.871 337.237L598.872 337.237Z" fill="#F2F2F2"/>
<path d="M81.0158 115.139C80.3594 115.241 79.6874 115.139 79.0909 114.847C78.4945 114.554 78.0024 114.086 77.6813 113.505C77.3602 112.923 77.2257 112.257 77.2959 111.597C77.3662 110.937 77.6378 110.314 78.0741 109.814C78.1202 109.482 78.1532 109.244 78.1993 108.913C78.1626 108.846 78.1258 108.779 78.0887 108.712C77.2533 107.215 75.9939 105.999 74.4688 105.215C72.9437 104.431 71.2209 104.115 69.5168 104.307C67.8126 104.499 66.2031 105.189 64.8904 106.292C63.5778 107.395 62.6205 108.861 62.1388 110.505C60.2127 117.07 57.5749 123.724 57.4797 130.454C57.4389 133.429 57.9148 136.388 58.8862 139.2C51.3023 126.505 46.5386 112.328 44.9183 97.6309C44.5155 93.9425 44.3194 90.2345 44.3309 86.5242C44.343 83.4823 44.4889 80.4474 44.7685 77.4196C46.3044 60.9894 51.7184 45.1576 60.5659 31.2243C65.2292 27.9823 68.786 23.3897 70.7569 18.0654C71.4725 16.1507 71.9069 14.1426 72.0468 12.1035C71.4955 12.2376 70.9321 12.3452 70.3769 12.4426C70.2036 12.4706 70.0213 12.4998 69.8481 12.5279L69.7827 12.538C69.1711 12.6323 68.5452 12.548 67.9804 12.2952C67.4156 12.0423 66.936 11.6318 66.5993 11.1129C66.2626 10.5939 66.0832 9.98882 66.0826 9.37037C66.082 8.75191 66.2604 8.14648 66.5961 7.62695C66.8053 7.30374 67.0145 6.98067 67.224 6.65773C67.5409 6.15975 67.8679 5.66996 68.1847 5.17206C68.2223 5.12394 68.2571 5.0737 68.289 5.0216C68.654 4.45352 69.0197 3.89466 69.3847 3.32658C68.4849 2.21625 67.3406 1.32863 66.0411 0.732907C61.5455 -1.28136 55.9012 1.06565 53.264 5.21795C50.6178 9.37117 50.6236 14.7937 52.2066 19.4513C53.6945 23.3993 55.8439 27.0653 58.5628 30.2925C58.3655 30.6106 58.158 30.9205 57.9608 31.2386C54.357 37.078 51.3345 43.2562 48.9368 49.6847C48.9379 42.7747 47.2975 35.9632 44.1505 29.8104C41.0179 24.098 35.8185 19.5653 31.1598 14.8389C25.5639 9.16183 15.7706 12.9694 15.7609 20.9381C15.7608 21.0153 15.7609 21.0924 15.7612 21.1695C16.4069 21.4463 17.0421 21.7456 17.6666 22.0674C18.4518 22.4766 19.095 23.1132 19.5119 23.8939C19.9289 24.6747 20.1001 25.563 20.0031 26.4426C19.9062 27.3222 19.5456 28.1521 18.9687 28.8234C18.3918 29.4947 17.6254 29.9763 16.7699 30.2049L16.6823 30.2283C17.1375 32.3959 17.7569 34.5257 18.5353 36.5995C20.766 42.3824 24.1681 47.6424 28.5283 52.0498C32.8886 56.4571 38.1129 59.9168 43.8738 62.2119C44.2514 62.3563 44.6197 62.5016 44.9962 62.6369C42.8686 71.6814 41.9269 80.964 42.1948 90.2513C42.3703 95.7286 42.9888 101.183 44.0441 106.56L43.9957 106.371C42.1651 100.463 38.3503 95.3664 33.1953 91.9433C25.5481 86.9435 15.3993 85.8995 7.32184 82.0905C6.46078 81.6616 5.49492 81.4877 4.5382 81.5893C3.58149 81.691 2.6738 82.0639 1.92221 82.6642C1.17063 83.2644 0.606475 84.0669 0.296307 84.977C-0.0138604 85.8872 -0.0571143 86.867 0.171652 87.8008C0.189139 87.8672 0.206809 87.9334 0.224648 87.9997C1.40361 88.3365 2.56043 88.7464 3.68839 89.2269C4.33409 89.5038 4.96923 89.8032 5.5938 90.1249C6.37898 90.534 7.02217 91.1707 7.4391 91.9514C7.85602 92.7321 8.02722 93.6205 7.93029 94.5001C7.83335 95.3797 7.4728 96.2095 6.89587 96.8809C6.31893 97.5522 5.55252 98.0338 4.69705 98.2624L4.60939 98.2857C4.54623 98.3019 4.49219 98.3171 4.42913 98.3333C6.85907 102.726 10.0276 106.669 13.7958 109.987C18.4409 113.996 23.8563 117.014 29.71 118.856C35.5637 120.699 41.7323 121.327 47.8375 120.702L47.8467 120.701C50.2857 127.713 53.4472 134.453 57.2805 140.812L82.8589 138.031C82.9197 137.738 82.9703 137.435 83.0219 137.142C80.6705 137.548 78.2782 137.665 75.8984 137.49C77.5428 134.957 79.1853 132.405 80.8298 129.872C80.8674 129.824 80.9022 129.774 80.934 129.721C81.767 128.426 82.6102 127.138 83.4431 125.843L83.4435 125.841C83.0974 122.185 82.2818 118.588 81.0166 115.14L81.0158 115.139Z" fill="#FFEEE6"/>
<path d="M434.403 105.667C435.669 106.015 436.843 106.636 437.843 107.487C438.843 108.337 439.644 109.397 440.189 110.59C440.735 111.784 441.012 113.082 441.002 114.395C440.991 115.707 440.692 117.001 440.127 118.185L453.853 133.435L446.614 144.031L427.533 122.223C425.605 121.142 424.14 119.392 423.417 117.304C422.694 115.216 422.762 112.936 423.609 110.895C424.456 108.855 426.022 107.195 428.012 106.231C430.001 105.268 432.275 105.067 434.403 105.667Z" fill="#A0616A"/>
<path d="M562.904 143.114C561.666 141.101 560.043 139.352 558.128 137.968C556.213 136.583 554.043 135.59 551.743 135.045C549.443 134.5 547.058 134.415 544.725 134.793C542.391 135.172 540.156 136.007 538.146 137.251L493.005 165.19L444.31 123.826L432.195 135.099L485.989 204.846L555.904 168.422C554.272 169.272 564.875 146.321 562.904 143.114Z" fill="#FFDACC"/>
<path d="M473.477 236.014C473.481 258.294 469.093 280.356 460.564 300.941C452.034 321.526 439.529 340.229 423.765 355.983C408 371.738 389.284 384.234 368.685 392.758C348.087 401.282 326.01 405.667 303.715 405.662C209.959 405.662 133.953 329.707 133.953 236.014C133.937 217.789 136.86 199.681 142.611 182.386C153.901 148.609 175.531 119.234 204.441 98.414C233.351 77.5939 268.08 66.3827 303.715 66.3657C334.448 66.355 364.607 74.6848 390.973 90.4657C417.339 106.247 438.921 128.886 453.417 155.968C457.011 162.65 460.146 169.568 462.801 176.675C463.168 177.664 463.527 178.654 463.876 179.653V179.662C465.432 184.054 466.803 188.528 467.988 193.083C471.644 207.101 473.489 221.528 473.477 236.014Z" fill="#3F3D56"/>
<path d="M285.141 121.554C277.512 117.432 269.042 115.104 260.376 114.75C251.71 114.396 243.078 116.024 235.137 119.51C228.146 122.551 220.784 128.005 218.452 137.855C227.885 132.292 240.095 141.082 242.523 155.183L241.956 155.339C240.674 165.106 243.536 175.739 249.077 181.795C249.804 175.505 253.943 171.223 258.015 168.549C262.086 165.874 266.589 163.932 269.697 159.335C273.38 153.885 274.316 145.92 275.779 138.654C277.243 131.388 280.019 123.579 285.141 121.554Z" fill="#AECFBA"/>
<path d="M232.339 204.667C229.727 208.587 226.237 211.047 223.106 214.11C219.985 217.183 217.014 221.33 216.391 226.655C215.995 230.067 216.608 233.535 216.523 236.985C216.438 240.434 215.288 244.317 212.939 245.175C209.233 246.513 206.403 239.633 202.593 239.152C199.566 238.775 196.84 243.535 197.717 247.663C198.595 251.791 202.716 253.62 205.083 250.924C207.224 254.515 205.715 261.028 202.499 262.13C202.159 264.392 201.82 266.645 201.49 268.907C193.36 263.224 185.146 257.446 178.233 249.124C170.544 239.947 165.775 228.683 164.538 216.778C163.642 207.211 164.972 196.269 160.577 188.908C157.059 183.018 151.023 181.717 145.591 182.085C144.601 182.151 143.601 182.264 142.611 182.386C145.815 172.771 149.883 163.465 154.768 154.583C155.873 154.109 156.9 153.47 157.814 152.688C162.869 148.4 165.114 139.72 169.216 133.716C169.48 133.33 169.754 132.953 170.037 132.585C174.234 127.109 179.855 124.291 185.287 121.671C197.312 115.837 209.686 109.928 222.38 110.738L218.768 111.087C214.552 122.887 210.333 134.687 206.111 146.487C205.47 148.296 204.822 150.109 204.168 151.925C201.773 158.635 199.302 165.78 199.67 173.291C199.887 177.74 201.433 182.49 204.376 184.017C207.12 185.43 210.119 183.696 212.77 181.981C213.892 181.265 215.005 180.548 216.127 179.823C220.154 177.231 224.615 174.573 228.869 176.307C232.764 177.891 235.64 183.178 236.187 188.88C236.689 194.423 235.335 199.975 232.339 204.667Z" fill="#AECFBA"/>
<path d="M256.291 285.228C244.529 277.991 232.767 270.754 221.006 263.517L221.205 263.004C213.893 265.787 210.856 278.777 212.065 289.4C213.273 300.024 217.371 309.52 219.442 319.871C222.233 334.037 221.18 348.69 216.39 362.311C231.856 344.969 245.543 326.121 257.246 306.05C258.881 303.521 260.127 300.76 260.942 297.861C261.689 294.777 261.574 291.069 260.078 288.595C259.115 287.176 257.814 286.018 256.291 285.228Z" fill="#AECFBA"/>
<path d="M209.871 153.567C208.623 156.373 208.142 160.115 209.275 163.018C210.433 165.984 212.88 167.324 215.133 168.44L221.632 171.659C223.794 172.73 226.124 173.811 228.328 172.93C230.986 171.867 232.83 167.703 232.353 163.836C231.845 159.722 229.25 156.892 226.85 154.482C223.491 151.109 220.132 147.736 216.773 144.363L214.881 146.68C212.833 148.676 211.139 151.005 209.871 153.567Z" fill="#AECFBA"/>
<path d="M438.638 197.551C441.562 198.239 444.485 198.927 447.409 199.615C446.9 209.483 442.005 218.616 435.441 221.924C432.706 223.3 429.659 223.809 427.396 226.382C425.349 228.719 424.312 232.357 423.359 235.835C421.69 241.904 420.021 247.974 418.351 254.044C416.559 260.585 414.258 267.851 409.599 270.208C405.6 272.234 401.026 269.755 397.952 265.599C394.877 261.442 393 255.853 391.18 250.406C391.293 256.343 388.53 262.168 384.616 264.232C380.693 266.296 375.92 264.43 373.298 259.821C371.412 256.513 370.629 252.149 368.781 248.794C366.932 245.439 363.056 243.516 361.038 246.664C359.708 248.756 359.878 251.961 359.218 254.619C358.19 258.747 355.077 261.339 351.993 261.565C348.919 261.791 345.92 260.019 343.345 257.616C338.035 252.639 334.121 244.741 332.603 235.967C331.933 232.055 331.745 227.795 332.905 224.129C334.065 220.463 336.866 217.635 339.648 218.333C341.478 214.469 337.865 209.341 334.612 209.794C331.348 210.246 328.792 213.743 326.114 216.429C323.445 219.115 319.71 221.066 317.022 218.399C317.041 220.877 315.023 222.517 313.278 222.31C311.543 222.112 309.996 220.717 308.402 219.728C302.244 215.892 294.425 218.436 290.049 225.694C292.784 214.063 296.792 200.718 305.196 197.984C308.629 196.863 312.373 197.786 315.617 195.845C321.361 192.405 322.521 179.408 317.56 174.045C318.192 179.116 318.069 185.034 315.391 188.503C312.712 191.971 307.091 189.709 307.431 184.582C306.657 188.116 302.81 188.654 301.036 185.939C299.254 183.225 299.405 178.786 300.669 175.544C301.932 172.301 304.083 169.973 306.167 167.74C310.647 162.943 315.193 158.089 320.38 155.073C325.576 152.057 331.575 151.039 336.781 154.036C339.525 155.619 341.94 158.258 344.741 159.653C347.542 161.058 351.097 160.879 352.955 157.599C355.04 153.942 354.059 148.513 354.832 143.942C356.219 135.865 364.301 132.085 368.781 137.42C365.433 136.562 361.972 140.521 361.556 145.318C361.132 150.115 363.556 154.96 366.8 156.411C372.252 158.824 377.59 152.754 381.711 147.137C386.012 141.256 390.319 135.378 394.632 129.503C395.321 128.503 396.094 127.563 396.942 126.694C398.293 125.379 400.094 124.625 401.98 124.587C403.866 124.548 405.696 125.227 407.1 126.487C411.457 130.04 413.504 137.326 417.078 142.34C422.265 149.625 430.027 151.397 437.252 152.811C442.637 153.857 448.025 154.909 453.417 155.968C457.011 162.65 460.146 169.568 462.801 176.675C453.671 180.548 445.249 187.796 438.638 197.551Z" fill="#AECFBA"/>
<path d="M456.048 310.951C452.007 319.15 447.308 327.008 441.995 334.448C438.6 332.996 434.95 335.588 431.772 338.02C428.452 340.564 424.463 343.043 421.058 340.725C417.578 338.35 416.456 331.705 417.559 326.436C418.663 321.177 421.416 316.993 424.086 313.015C426.915 308.793 429.942 304.41 433.875 302.771C437.817 301.131 442.882 303.449 444.033 309.048L446.824 308.953C445.259 306.804 446.079 302.356 448.182 301.574C450.606 300.659 452.709 303.986 454.143 306.927C454.784 308.256 455.435 309.594 456.048 310.951Z" fill="#AECFBA"/>
<path d="M349.13 271.141C343.13 271.518 338.377 264.136 335.218 256.874C332.06 249.612 329.178 241.307 323.764 237.611C320.67 235.499 317.143 235.209 313.788 234.186C310.432 233.162 306.92 231.044 305.316 226.731L301.509 225.195C296.482 228.019 291.389 230.896 287.058 235.492C282.2 240.649 279.174 247.26 278.447 254.306C277.719 261.919 280.404 270.409 285.421 273.269C289.385 275.529 294.001 274.105 298.016 276.174C303.033 278.759 306.012 286.268 307.139 293.682C308.267 301.096 307.981 308.801 308.788 316.299C309.594 323.797 311.818 331.599 316.418 335.442C322.176 340.25 330.624 336.255 333.207 327.502C334.474 323.208 334.431 318.363 335.378 313.906C337.047 306.058 341.551 300.234 345.122 293.796C348.694 287.358 351.506 278.613 349.13 271.141Z" fill="#AECFBA"/>
<path d="M289.837 194.016C290.396 194.531 290.919 195.085 291.399 195.674C291.897 196.531 292.151 197.508 292.134 198.499C292.117 199.49 291.83 200.458 291.303 201.298C292.026 201.257 292.733 201.066 293.378 200.738C294.023 200.411 294.594 199.953 295.053 199.393C296.148 198.147 297.111 196.791 297.928 195.346C298.54 194.349 299.191 193.001 298.775 191.816C298.492 191.008 297.822 190.663 297.352 190.055C296.607 189.091 296.422 187.561 296.037 186.238C295.204 183.381 293.21 181.281 291.044 180.98L291.345 181.038C290.441 181.347 289.809 182.783 290.009 184.074C290.191 185.25 290.947 186.227 290.872 187.426C290.764 189.151 289.039 189.96 288.933 191.686C288.916 192.551 289.241 193.388 289.837 194.016Z" fill="#AECFBA"/>
<path d="M279.556 164.704C279.565 164.702 279.574 164.701 279.583 164.699C279.767 164.531 279.939 164.349 280.095 164.154L279.556 164.704Z" fill="#E6E6E6"/>
<path d="M281.356 172.801C282.682 171.948 283.423 169.59 282.985 167.617C282.549 165.656 281.006 164.337 279.583 164.699C279.17 165.117 278.657 165.424 278.094 165.59C277.53 165.756 276.933 165.776 276.359 165.648C275.479 165.421 274.513 164.838 273.75 165.501C273.314 165.995 273.008 166.591 272.862 167.235C272.579 168.101 272.297 168.967 272.014 169.834C271.88 170.144 271.845 170.488 271.914 170.819C271.968 170.951 272.056 171.068 272.168 171.157C272.28 171.246 272.413 171.304 272.555 171.327C274.249 171.827 275.944 172.326 277.638 172.825C278.873 173.189 280.206 173.539 281.356 172.801Z" fill="#AECFBA"/>
<path d="M409.282 284.579C408.499 283.298 407.716 282.016 406.932 280.734C406.163 279.25 405.111 277.93 403.836 276.849C403.555 276.614 403.231 276.438 402.881 276.33C402.532 276.223 402.164 276.186 401.8 276.222C401.436 276.259 401.083 276.368 400.762 276.542C400.441 276.717 400.158 276.954 399.929 277.24L400.025 277.972C401.81 280.21 403.699 282.697 404.152 286.02C404.331 287.329 404.269 288.685 404.425 290C404.582 291.316 405.027 292.68 405.877 293.247C407.11 294.07 408.558 292.856 409.436 291.375C410.221 290.158 410.573 288.713 410.436 287.271C410.24 286.304 409.847 285.388 409.282 284.579Z" fill="#AECFBA"/>
<path d="M444.144 235.634C444.37 234.149 444.597 232.664 444.823 231.18C445.191 229.549 445.237 227.863 444.958 226.214C444.895 225.854 444.76 225.511 444.562 225.203C444.364 224.896 444.106 224.632 443.804 224.425C443.503 224.219 443.162 224.075 442.804 224.002C442.446 223.929 442.076 223.928 441.718 224L441.319 224.621C441.242 227.483 441.085 230.601 439.291 233.434C438.583 234.551 437.662 235.548 436.934 236.655C436.207 237.763 435.668 239.093 435.953 240.073C436.366 241.497 438.256 241.5 439.882 240.932C441.267 240.506 442.467 239.627 443.291 238.436C443.764 237.57 444.055 236.616 444.144 235.634Z" fill="#AECFBA"/>
<path d="M421.57 286.247C421.953 285.147 421.4 283.885 421.283 282.669C421.227 281.098 421.644 279.547 422.48 278.216C423.309 276.96 423.938 275.582 424.343 274.132C424.514 273.472 424.483 272.776 424.254 272.133C423.995 271.551 423.367 271.285 423.006 271.746L423.777 272.242C422.736 272.057 421.667 272.109 420.649 272.394C420.068 272.616 419.549 272.975 419.137 273.44C418.724 273.905 418.429 274.462 418.278 275.065C418.15 276.005 417.942 276.932 417.656 277.836C417.196 278.781 416.306 279.095 415.747 279.924C415.365 280.659 415.173 281.477 415.186 282.305C415.2 283.133 415.42 283.944 415.825 284.666C416.528 285.847 417.645 286.725 418.958 287.128C419.9 287.466 421.139 287.484 421.57 286.247Z" fill="#AECFBA"/>
<path d="M443.453 292.845C443.793 293.73 444.249 294.566 444.809 295.332C445.856 296.386 447.28 295.738 448.551 295.482C449.704 295.3 450.885 295.433 451.969 295.867C453.053 296.302 453.999 297.021 454.706 297.949C454.213 295.493 453.138 293.19 451.57 291.235C450.002 289.28 447.987 287.73 445.695 286.715C442.699 285.494 439.544 285.376 436.428 285.266L435.89 285.404C437.261 289.394 441.568 289.304 443.453 292.845Z" fill="#AECFBA"/>
<path d="M350.772 301.004L350.78 301.022C350.832 300.921 350.884 300.821 350.936 300.72L350.772 301.004Z" fill="#E6E6E6"/>
<path d="M347.452 307.426C346.728 308.739 346.105 310.106 345.59 311.514C344.907 313.795 344.454 316.139 344.24 318.51C344.071 319.858 344.019 321.58 344.864 322.237C345.107 322.398 345.4 322.465 345.689 322.426C345.977 322.387 346.242 322.244 346.433 322.024C346.902 321.527 347.287 320.957 347.57 320.335C349.231 317.476 350.521 314.416 351.408 311.231C352.217 307.876 352.21 303.926 350.78 301.022C349.67 303.156 348.561 305.291 347.452 307.426Z" fill="#AECFBA"/>
<path d="M315.427 136.349C315.954 136.864 316.621 137.213 317.344 137.354C318.068 137.496 318.818 137.422 319.5 137.143C320.913 136.526 322.21 135.67 323.332 134.613C324.262 133.926 325.051 133.066 325.656 132.08C325.989 131.492 326.202 130.843 326.284 130.171C326.365 129.5 326.313 128.819 326.131 128.167C325.606 126.633 324.274 126.119 323.099 125.771C321.219 125.214 319.338 124.656 317.457 124.099L318.817 122.873C317.418 122.123 315.869 123.516 314.994 125.241C314.433 126.368 314.042 127.571 313.833 128.812C313.365 131.519 313.823 134.744 315.427 136.349Z" fill="#E6E6E6"/>
<path d="M348.634 125.208C349.164 125.792 349.897 126.153 350.683 126.217C351.47 126.281 352.251 126.043 352.869 125.552C353.4 125.153 353.842 124.647 354.164 124.066C354.487 123.485 354.684 122.843 354.742 122.181C354.875 120.702 354.143 119.059 353.098 118.932L353.338 117.547C351.325 117.184 348.848 117.111 347.77 119.554C347.406 120.489 347.294 121.504 347.446 122.496C347.598 123.489 348.007 124.424 348.634 125.208Z" fill="#E6E6E6"/>
<path d="M344.198 51.5949C332.399 50.2649 320.554 53.6734 311.27 61.0705C301.985 68.4677 296.022 79.2476 294.691 91.0389C291.919 115.593 304.864 168.913 328.464 190.985C339.576 148.696 378.516 123.613 383.668 101.069C389.174 76.9795 368.768 54.3647 344.198 51.5949Z" fill="#FCB1A7"/>
<path d="M336.037 106.181C344.101 106.181 350.639 99.6482 350.639 91.5896C350.639 83.5309 344.101 76.9981 336.037 76.9981C327.973 76.9981 321.436 83.5309 321.436 91.5896C321.436 99.6482 327.973 106.181 336.037 106.181Z" fill="white"/>
<path d="M320.685 212.024C325.967 212.024 330.248 207.745 330.248 202.466C330.248 197.188 325.967 192.909 320.685 192.909C315.403 192.909 311.121 197.188 311.121 202.466C311.121 207.745 315.403 212.024 320.685 212.024Z" fill="#FCB1A7"/>
<path opacity="0.2" d="M348.119 81.1355C349.762 82.1225 351.195 83.4232 352.335 84.9636C353.476 86.5039 354.302 88.2536 354.765 90.1129C355.229 91.9721 355.322 93.9044 355.039 95.7995C354.755 97.6946 354.101 99.5154 353.113 101.158C352.126 102.8 350.824 104.232 349.283 105.372C347.741 106.512 345.991 107.337 344.13 107.8C340.373 108.736 336.397 108.143 333.078 106.149C336.462 106.902 340.004 106.426 343.069 104.807C346.134 103.188 348.523 100.532 349.808 97.3141C351.093 94.096 351.189 90.5261 350.081 87.2433C348.972 83.9604 346.731 81.1791 343.757 79.3969C345.295 79.7375 346.768 80.3247 348.119 81.1355Z" fill="#231F20"/>
<path opacity="0.2" d="M383.725 101.116C378.573 123.66 339.634 148.743 328.521 191.032C326.302 188.936 324.24 186.679 322.354 184.28C334.841 144.53 371.357 120.376 376.335 98.5944C380.79 79.0992 368.275 60.5717 350.316 52.7451C372.055 58.2062 388.771 79.0404 383.725 101.116Z" fill="#231F20"/>
<path d="M207.369 108.529C198.509 107.53 189.614 110.09 182.641 115.645C175.669 121.2 171.191 129.295 170.191 138.15C168.11 156.589 177.831 196.63 195.554 213.206C203.899 181.449 233.141 162.612 237.01 145.682C241.145 127.592 225.821 110.609 207.369 108.529Z" fill="#FCB1A7"/>
<path d="M201.241 149.521C207.297 149.521 212.206 144.615 212.206 138.563C212.206 132.512 207.297 127.606 201.241 127.606C195.185 127.606 190.276 132.512 190.276 138.563C190.276 144.615 195.185 149.521 201.241 149.521Z" fill="white"/>
<path d="M189.712 229.005C193.678 229.005 196.894 225.792 196.894 221.828C196.894 217.864 193.678 214.651 189.712 214.651C185.745 214.651 182.53 217.864 182.53 221.828C182.53 225.792 185.745 229.005 189.712 229.005Z" fill="#FCB1A7"/>
<path opacity="0.2" d="M210.314 130.713C211.548 131.454 212.624 132.431 213.48 133.587C214.337 134.744 214.957 136.058 215.305 137.454C215.654 138.851 215.723 140.302 215.51 141.725C215.298 143.148 214.806 144.515 214.065 145.749C213.323 146.982 212.345 148.057 211.188 148.913C210.03 149.769 208.716 150.389 207.318 150.737C205.921 151.085 204.469 151.155 203.045 150.942C201.621 150.729 200.253 150.238 199.018 149.497C201.56 150.062 204.22 149.705 206.522 148.489C208.824 147.273 210.617 145.279 211.582 142.862C212.547 140.445 212.619 137.765 211.787 135.299C210.954 132.834 209.271 130.745 207.038 129.407C208.194 129.663 209.3 130.104 210.314 130.713Z" fill="#231F20"/>
<path opacity="0.2" d="M237.053 145.717C233.184 162.647 203.942 181.484 195.597 213.241C193.93 211.667 192.382 209.972 190.965 208.17C200.343 178.32 227.765 160.181 231.503 143.824C234.849 129.184 225.45 115.27 211.964 109.392C228.289 113.494 240.842 129.139 237.053 145.717Z" fill="#231F20"/>
<path d="M550.661 505.477H538.622L532.895 459.071L550.664 459.072L550.661 505.477Z" fill="#A0616A"/>
<path d="M557.138 528.321H548.595L547.07 520.261L543.165 528.321H520.507C519.421 528.321 518.363 527.974 517.489 527.331C516.614 526.688 515.968 525.782 515.644 524.746C515.321 523.71 515.338 522.598 515.692 521.572C516.046 520.546 516.719 519.66 517.613 519.043L535.707 506.555V498.407L554.738 499.542L557.138 528.321Z" fill="#2F2E41"/>
<path d="M504.03 505.477H491.991L486.264 459.071L504.033 459.072L504.03 505.477Z" fill="#A0616A"/>
<path d="M510.507 528.321H501.964L500.439 520.261L496.534 528.321H473.876C472.79 528.321 471.732 527.974 470.858 527.331C469.983 526.688 469.337 525.782 469.013 524.746C468.69 523.71 468.707 522.598 469.061 521.572C469.415 520.546 470.088 519.66 470.982 519.043L489.076 506.555V498.407L508.107 499.542L510.507 528.321Z" fill="#2F2E41"/>
<path d="M458.292 382.954C460.596 386.408 485.66 481.346 485.66 481.346L507.884 483.878L505.246 459.991L501.214 417.72L494.97 389.505C494.97 389.505 517.019 339.359 518.412 335.365L519.403 332.498L526.292 394.973C527.11 397.203 527.467 399.577 527.34 401.949C527.133 405.851 531.049 464.562 531.049 464.562L532.932 485.617L551.973 488.26L559.698 451.829C566.149 439.995 562.452 397.943 559.814 394.029C557.176 390.115 558.224 362.855 558.224 362.855C561.593 361.67 581.68 293.218 571.633 293.622C572.278 289.973 572.785 286.715 572.785 286.715L555.344 272.659L511.697 261.321L500.685 256.037C500.685 256.037 481.017 292.379 481.213 294.187C481.484 296.476 480.96 298.788 479.727 300.737L459.87 367.149C459.87 367.149 455.965 379.466 458.292 382.954Z" fill="#2F2E41"/>
<path d="M567.949 145.308L561.005 130.576L537.372 131.483L529.663 146.81C529.663 146.81 507.633 173.106 506.92 181.656C506.023 192.41 513.476 245.115 506.023 241.698C506.023 241.698 488.452 262.31 498.849 262.31C509.246 262.31 556.279 291.814 559.365 295.132C562.451 298.45 576.228 300.602 575.073 293.675C573.917 286.748 567.949 249.285 567.949 249.285L584.107 190.379C588.757 177.661 590.205 163.395 579.692 154.852L567.949 145.308Z" fill="#FFDACC"/>
<path d="M480.409 101.946C477.248 100.692 473.87 100.072 470.47 100.123C467.069 100.173 463.712 100.892 460.589 102.239C457.467 103.587 454.64 105.535 452.271 107.974C449.902 110.412 448.037 113.293 446.782 116.452C441.505 129.738 440.63 161.464 450.451 177.365C463.078 155.446 488.624 147.352 494.925 135.55C501.658 122.939 493.703 107.219 480.409 101.946Z" fill="#FCB1A7"/>
<path d="M469.778 131.473C474.443 131.473 478.224 127.694 478.224 123.033C478.224 118.371 474.443 114.592 469.778 114.592C465.113 114.592 461.332 118.371 461.332 123.033C461.332 127.694 465.113 131.473 469.778 131.473Z" fill="white"/>
<path d="M444.364 188.123C447.42 188.123 449.897 185.647 449.897 182.594C449.897 179.541 447.42 177.066 444.364 177.066C441.309 177.066 438.832 179.541 438.832 182.594C438.832 185.647 441.309 188.123 444.364 188.123Z" fill="#FCB1A7"/>
<path opacity="0.2" d="M478.11 119.03C479.657 120.647 480.499 122.811 480.45 125.048C480.402 127.284 479.466 129.41 477.85 130.958C476.234 132.506 474.069 133.349 471.831 133.303C469.593 133.257 467.465 132.324 465.914 130.711C467.689 131.644 469.738 131.916 471.695 131.477C473.652 131.039 475.389 129.918 476.595 128.317C477.801 126.716 478.397 124.738 478.277 122.737C478.157 120.736 477.328 118.844 475.939 117.398C476.746 117.821 477.479 118.372 478.11 119.03Z" fill="#231F20"/>
<path opacity="0.2" d="M494.95 135.585C488.649 147.387 463.103 155.481 450.476 177.4C449.555 175.894 448.747 174.321 448.059 172.696C461.068 152.402 485.12 144.459 491.208 133.056C496.656 122.85 492.485 110.609 483.649 103.516C494.954 109.862 501.12 124.028 494.95 135.585Z" fill="#231F20"/>
<path d="M441.871 180.691C443.157 180.426 444.486 180.446 445.763 180.749C447.041 181.053 448.236 181.633 449.265 182.448C450.294 183.263 451.131 184.294 451.718 185.468C452.306 186.642 452.628 187.93 452.663 189.242L471.825 196.592L470.195 209.318L443.281 198.558C441.072 198.471 438.972 197.577 437.378 196.046C435.784 194.515 434.808 192.453 434.634 190.25C434.461 188.048 435.101 185.858 436.435 184.096C437.769 182.334 439.703 181.122 441.871 180.69L441.871 180.691Z" fill="#A0616A"/>
<path d="M575.761 154.465C573.744 153.234 571.503 152.413 569.167 152.05C566.832 151.686 564.447 151.787 562.151 152.346C559.854 152.906 557.691 153.913 555.784 155.31C553.878 156.707 552.267 158.466 551.042 160.486L523.538 205.875L461.351 191.145L455.686 206.688L535.322 244.385L575.655 180.188C581.694 171.707 584.651 159.888 575.761 154.465Z" fill="#FFDACC"/>
<path d="M576.788 98.839C576.79 103.214 575.717 107.522 573.663 111.385C571.61 115.249 568.639 118.55 565.011 120.998C561.383 123.446 557.209 124.967 552.856 125.427C548.502 125.886 544.103 125.271 540.043 123.635C535.983 121.999 532.387 119.392 529.57 116.043C526.754 112.694 524.803 108.705 523.89 104.427C522.976 100.148 523.128 95.7111 524.33 91.5048C525.533 87.2986 527.751 83.4517 530.789 80.3019L530.918 80.1738C531.132 79.9492 531.346 79.7247 531.57 79.5108C531.572 79.5109 531.573 79.5106 531.574 79.5101C531.576 79.5095 531.577 79.5088 531.578 79.5078C531.579 79.5068 531.58 79.5056 531.58 79.5043C531.581 79.503 531.581 79.5016 531.581 79.5001C531.859 79.2436 532.137 78.987 532.426 78.7412C536.29 75.3554 541.049 73.1544 546.133 72.4017C551.217 71.649 556.41 72.3765 561.091 74.4971C565.772 76.6176 569.742 80.0414 572.526 84.3585C575.31 88.6756 576.79 93.7031 576.788 98.839V98.839Z" fill="#2F2E41"/>
<path d="M543.456 127.433C555.841 127.433 565.881 117.4 565.881 105.023C565.881 92.6455 555.841 82.6119 543.456 82.6119C531.07 82.6119 521.03 92.6455 521.03 105.023C521.03 117.4 531.07 127.433 543.456 127.433Z" fill="#9E616A"/>
<path d="M567.27 111.414L563.554 110.758C561.478 110.381 559.567 109.379 558.076 107.887C556.584 106.395 555.585 104.483 555.21 102.408L551.585 108.48L551.426 108.533C542.788 111.399 533.8 110.542 523.955 105.916C521.141 104.581 518.41 103.077 515.779 101.41L515.584 101.289L515.568 101.061C515.067 93.7707 516.703 87.6802 520.179 83.9114C521.514 82.4934 523.133 81.3732 524.931 80.6243C526.729 79.8753 528.665 79.5145 530.612 79.5654C530.75 79.5292 530.878 79.459 530.982 79.3611C531.032 79.3243 531.082 79.288 531.132 79.2534V79.2158L531.389 79.0946C531.943 78.8347 532.507 78.5857 533.071 78.3581C537.508 76.6415 542.34 76.2109 547.012 77.1157C551.683 78.0206 556.004 80.2242 559.479 83.4734C566.386 90.0636 569.555 101.123 567.363 110.995L567.27 111.414Z" fill="#2F2E41"/>
<path d="M614.57 130.508C606.939 126.571 616.754 112.285 614.782 103.932C612.809 95.5794 598.607 92.8928 597.702 84.3583C596.797 75.8238 594.669 67.0214 589.033 60.5454C585.432 56.4072 580.126 53.3522 574.663 53.8706C572.815 54.046 571.026 54.6174 569.418 55.5459C567.811 56.4745 566.422 57.7384 565.348 59.2515C564.273 60.7646 563.537 62.4914 563.191 64.3143C562.844 66.1372 562.894 68.0133 563.339 69.8149C561.783 67.6124 557.758 68.0898 556.762 70.5951C555.876 72.8222 557.833 75.52 560.136 75.717C563.149 79.4361 566.6 83.383 571.321 84.1332C572.073 84.3058 572.855 84.3054 573.607 84.1319C574.359 83.9584 575.061 83.6165 575.662 83.1319C576.773 82.066 576.859 79.935 575.541 79.1384C581.474 81.4936 584.953 87.9042 585.833 94.2229C586.714 100.542 585.496 106.935 584.693 113.264C583.89 119.593 583.545 126.251 586.028 132.128C588.962 139.073 595.717 144.05 603.089 145.646C610.461 147.242 618.312 145.682 624.984 142.167C631.657 138.653 637.222 133.287 641.767 127.272C633.937 132.828 623.104 134.91 614.57 130.508Z" fill="#2F2E41"/>
<path d="M566.316 110.791C566.316 110.791 559.672 86.0106 531.196 80.2912C531.164 80.2806 531.057 80.2378 530.918 80.1738C530.832 80.1203 530.725 80.0668 530.618 80.0134C530.939 79.8316 531.249 79.6714 531.57 79.5109C531.572 79.5109 531.573 79.5106 531.574 79.5101C531.576 79.5096 531.577 79.5088 531.578 79.5078C531.579 79.5068 531.58 79.5056 531.58 79.5043C531.581 79.503 531.581 79.5016 531.581 79.5002C531.859 79.2436 532.137 78.987 532.426 78.7412L533.239 78.7733C533.239 78.7733 561.812 74.2513 566.316 110.791Z" fill="#FD6584"/>
<path opacity="0.2" d="M551.442 190.304L535.359 208.925L508.784 201.083L537.755 214.424L551.442 190.304Z" fill="black"/>
<path d="M647.979 529.725L400.7 530C400.417 529.999 400.146 529.886 399.947 529.686C399.747 529.486 399.635 529.215 399.635 528.933C399.635 528.65 399.747 528.38 399.947 528.18C400.146 527.98 400.417 527.867 400.7 527.866L647.979 527.591C648.262 527.591 648.533 527.703 648.734 527.903C648.934 528.103 649.046 528.375 649.046 528.658C649.046 528.941 648.934 529.212 648.734 529.412C648.533 529.612 648.262 529.725 647.979 529.725Z" fill="white"/>
<path d="M658.833 363.901C647.254 363.901 634.563 363.464 620.76 362.589C549.366 358.059 456.89 342.307 360.365 318.237C263.841 294.167 174.801 264.653 109.647 235.133C77.9086 220.753 53.5497 207.141 37.2475 194.674C19.9877 181.477 12.438 169.973 14.8073 160.484C19.4238 141.997 60.3003 137.952 93.7787 137.815L93.7901 140.504C47.8154 140.692 20.6927 148.019 17.4179 161.135C13.2463 177.839 47.2677 203.918 110.758 232.684C175.768 262.139 264.645 291.597 361.017 315.629C457.388 339.661 549.694 355.385 620.931 359.906C690.499 364.322 732.794 357.274 736.965 340.569C740.428 326.7 717.597 306.268 672.678 283.038L673.914 280.65C706.553 297.53 744.439 321.74 739.576 341.22C737.206 350.709 725.133 357.319 703.692 360.866C691.47 362.888 676.458 363.901 658.833 363.901Z" fill="#FCB1A7"/>
</g>
<defs>
<clipPath id="clip0_18_6">
<rect width="740" height="530" fill="white"/>
</clipPath>
</defs>
</svg>
