<?xml version="1.0" standalone="no"?>
<!DOCTYPE svg PUBLIC "-//W3C//DTD SVG 20010904//EN"
 "http://www.w3.org/TR/2001/REC-SVG-20010904/DTD/svg10.dtd">
<svg version="1.0" xmlns="http://www.w3.org/2000/svg"
 width="840.000000pt" height="975.000000pt" viewBox="0 0 840.000000 975.000000"
 preserveAspectRatio="xMidYMid meet">

<g transform="translate(0.000000,975.000000) scale(0.100000,-0.100000)"
fill="#000000" stroke="none">
<path d="M3975 9339 c-384 -37 -789 -175 -1115 -382 -319 -202 -617 -504 -813
-823 -384 -627 -479 -1402 -255 -2094 252 -777 827 -1366 1603 -1640 288 -102
657 -151 972 -130 651 42 1228 307 1678 771 363 374 592 827 686 1356 20 112
23 162 24 398 0 313 -8 385 -70 631 -98 389 -281 740 -544 1046 -532 618
-1348 944 -2166 867z"/>
<path d="M6728 4232 c-148 -194 -337 -385 -549 -554 -983 -782 -2341 -905
-3444 -311 -360 194 -680 456 -947 776 -50 59 -95 107 -100 107 -20 0 -309
-255 -558 -491 -169 -161 -482 -486 -659 -684 -81 -91 -93 -121 -161 -395 -70
-287 -100 -520 -100 -790 0 -265 26 -441 90 -625 67 -190 159 -335 295 -464
207 -196 478 -304 860 -341 140 -13 5379 -13 5516 0 678 67 1072 425 1192
1081 20 111 22 156 22 419 0 331 -14 464 -80 760 -63 279 -54 263 -259 520
-311 391 -695 786 -1036 1067 -13 10 -25 -1 -82 -75z"/>
</g>
</svg>
